<?xml version="1.0" encoding="utf-8"?>
<!-- Generator: Adobe Illustrator 22.1.0, SVG Export Plug-In . SVG Version: 6.00 Build 0)  -->
<svg version="1.1" id="Layer_1" xmlns="http://www.w3.org/2000/svg" xmlns:xlink="http://www.w3.org/1999/xlink" x="0px" y="0px"
	 viewBox="0 0 26 25" style="enable-background:new 0 0 26 25;" xml:space="preserve">
<style type="text/css">
	.st0{fill:#FF6F00;}
</style>
<g id="menu">
	<g id="menu-current" transform="translate(-549.000000, -257.000000)">
		<g id="Page-1" transform="translate(549.000000, 257.000000)">
			<g id="Group-3" transform="translate(8.666667, 9.006685)">
				<path id="Fill-1" class="st0" d="M17.3,15c-0.1,0.2-0.2,0.3-0.4,0.4c-0.4,0.1-4.2,0.8-6-0.4c-1.2,0.5-2.4,0.8-3.7,0.8l0,0
					c-2.8,0-5.5-1.4-7.2-3.6l0.6-0.5c0.2,0.1,0.4,0.1,0.5,0.2c0.8,0.2,1.6,0.3,2.4,0.3c5.2,0,9.4-4.2,9.4-9.5c0-0.5,0-1-0.1-1.5
					c0-0.1,0-0.2-0.1-0.4l0.6-0.6c1.8,1.7,2.8,4.1,2.8,6.6c0,1.3-0.3,2.5-0.8,3.7c0,0.3-0.2,2.1,1.8,4.1
					C17.3,14.6,17.4,14.8,17.3,15"/>
			</g>
			<g id="Group-6" transform="translate(0.000000, 0.311033)">
				<path id="Fill-4" class="st0" d="M10.6,19.2c-1.3,0-2.6-0.3-3.9-0.8c-0.7,0.5-1.8,0.8-3.3,0.8l0,0c-1.6,0-3-0.3-3-0.3
					c-0.2,0-0.4-0.2-0.4-0.4c0-0.3,0-0.5,0.2-0.6c2-2,1.9-4,1.8-4.3c-0.5-1.2-0.8-2.5-0.8-3.9c0-5.2,4.2-9.5,9.4-9.5S20,4.5,20,9.7
					S15.8,19.2,10.6,19.2"/>
			</g>
		</g>
	</g>
</g>
</svg>
