<?xml version="1.0" encoding="utf-8"?>
<!-- Generator: Adobe Illustrator 19.2.1, SVG Export Plug-In . SVG Version: 6.00 Build 0)  -->
<svg version="1.1" id="Layer_1" xmlns="http://www.w3.org/2000/svg" xmlns:xlink="http://www.w3.org/1999/xlink" x="0px" y="0px"
	 viewBox="0 0 20 13.3" style="enable-background:new 0 0 20 13.3;" xml:space="preserve">
<style type="text/css">
	.st0{fill:#D3D1A3;}
</style>
<g>
	<path class="st0" d="M20,3.3v10H0v-10H20z M1.7,1.7h16.6V0H1.7V1.7z M4.2,5H1.7v2.5h1.2V6.2h1.2V5z M4.2,10.4H2.9V9.2H1.7v2.5h2.5
		V10.4z M12.5,8.4c0-0.7-0.2-1.3-0.7-1.8c-0.5-0.5-1.1-0.7-1.8-0.7c-0.7,0-1.3,0.2-1.8,0.7C7.7,7.1,7.5,7.7,7.5,8.4
		c0,0.7,0.2,1.3,0.7,1.8c0.5,0.5,1.1,0.7,1.8,0.7c0.7,0,1.3-0.2,1.8-0.7C12.3,9.7,12.5,9.1,12.5,8.4z M18.3,5h-2.5v1.2h1.2v1.2h1.2
		V5z M18.3,9.2h-1.2v1.2h-1.2v1.2h2.5V9.2z"/>
</g>
</svg>
