<?xml version="1.0" encoding="utf-8"?>
<!-- Generator: Adobe Illustrator 19.2.1, SVG Export Plug-In . SVG Version: 6.00 Build 0)  -->
<svg version="1.1" id="Layer_1" xmlns="http://www.w3.org/2000/svg" xmlns:xlink="http://www.w3.org/1999/xlink" x="0px" y="0px"
	 viewBox="0 0 25 15.1" style="enable-background:new 0 0 25 15.1;" xml:space="preserve">
<style type="text/css">
	.st0{fill-rule:evenodd;clip-rule:evenodd;fill:#FCB131;}
	.st1{fill-rule:evenodd;clip-rule:evenodd;fill:#ED1C2E;}
	.st2{fill-rule:evenodd;clip-rule:evenodd;fill:#FFFFFF;}
	.st3{fill-rule:evenodd;clip-rule:evenodd;fill:#003473;}
</style>
<g>
	<path class="st0" d="M12.5,13.1c1.3,1.2,3.1,2,5,2c4.1,0,7.5-3.4,7.5-7.5C25,3.4,21.7,0,17.5,0c-1.9,0-3.7,0.7-5,1.9
		C11,3.3,10,5.3,10,7.5C10,9.7,11,11.7,12.5,13.1L12.5,13.1z"/>
	<path class="st0" d="M24,11.7c0-0.1,0.1-0.2,0.2-0.2c0.1,0,0.2,0.1,0.2,0.2c0,0.1-0.1,0.2-0.2,0.2C24.1,12,24,11.9,24,11.7L24,11.7
		z M24.2,11.9c0.1,0,0.2-0.1,0.2-0.2c0-0.1-0.1-0.2-0.2-0.2c-0.1,0-0.2,0.1-0.2,0.2C24.1,11.8,24.1,11.9,24.2,11.9L24.2,11.9z
		 M24.2,11.8L24.2,11.8l-0.1-0.2h0.1c0,0,0,0,0.1,0c0,0,0,0,0,0.1c0,0,0,0.1,0,0.1l0.1,0.1H24.2L24.2,11.8L24.2,11.8L24.2,11.8v-0.1
		h0c0,0,0,0,0,0c0,0,0,0,0,0c0,0,0,0,0,0c0,0,0,0,0,0h0v0.1V11.8L24.2,11.8z"/>
	<path class="st1" d="M14.9,6.7c0-0.3-0.1-0.5-0.1-0.8h-4.6c0.1-0.3,0.1-0.5,0.2-0.8h4.1c-0.1-0.3-0.2-0.5-0.3-0.8h-3.5
		c0.1-0.3,0.3-0.5,0.4-0.8h2.6c-0.2-0.3-0.4-0.5-0.6-0.8h-1.5c0.2-0.3,0.5-0.6,0.8-0.8C11.2,0.7,9.4,0,7.5,0C3.4,0,0,3.4,0,7.5
		c0,4.1,3.4,7.5,7.5,7.5c1.9,0,3.7-0.7,5-2l0,0l0,0c0.3-0.2,0.5-0.5,0.7-0.8h-1.5c-0.2-0.3-0.4-0.5-0.6-0.8h2.6
		c0.2-0.3,0.3-0.5,0.4-0.8h-3.5c-0.1-0.3-0.2-0.5-0.3-0.8h4.1c0.1-0.3,0.2-0.5,0.2-0.8c0.1-0.3,0.1-0.5,0.1-0.8c0-0.3,0-0.5,0-0.8
		C15,7.3,14.9,7,14.9,6.7L14.9,6.7z"/>
	<path class="st2" d="M24,9.3C24,9.1,24.1,9,24.2,9c0.1,0,0.2,0.1,0.2,0.2c0,0.1-0.1,0.2-0.2,0.2C24.1,9.5,24,9.4,24,9.3L24,9.3z
		 M24.2,9.5c0.1,0,0.2-0.1,0.2-0.2c0-0.1-0.1-0.2-0.2-0.2c-0.1,0-0.2,0.1-0.2,0.2C24.1,9.4,24.1,9.5,24.2,9.5L24.2,9.5z M24.2,9.4
		L24.2,9.4l-0.1-0.2h0.1c0,0,0,0,0.1,0c0,0,0,0,0,0.1C24.3,9.2,24.3,9.3,24.2,9.4h0.1H24.2L24.2,9.4L24.2,9.4L24.2,9.4V9.3h0
		c0,0,0,0,0,0c0,0,0,0,0,0c0,0,0,0,0,0c0,0,0,0,0,0h0v0.1V9.4L24.2,9.4z"/>
	<path class="st3" d="M10,9.7C9.7,9.8,9.5,9.8,9.4,9.8C9,9.8,8.7,9.6,8.7,9.1c0-0.1,0-0.2,0-0.3l0.1-0.3l0-0.2l0.3-2.1H10L9.9,6.6
		h0.5l-0.1,0.8H9.8L9.6,8.7c0,0.1,0,0.1,0,0.1C9.5,9,9.6,9,9.8,9c0.1,0,0.2,0,0.2,0L10,9.7L10,9.7z"/>
	<path class="st3" d="M12.5,9.7c-0.3,0.1-0.5,0.1-0.8,0.1c-0.9,0-1.4-0.5-1.4-1.4c0-1.1,0.6-1.8,1.4-1.8c0.7,0,1.1,0.4,1.1,1.1
		c0,0.2,0,0.5-0.1,0.8h-1.6c0,0.1,0,0.1,0,0.1c0,0.4,0.2,0.5,0.7,0.5c0.3,0,0.6-0.1,0.8-0.2L12.5,9.7L12.5,9.7z M12,7.8
		c0-0.1,0-0.1,0-0.2c0-0.3-0.1-0.4-0.4-0.4c-0.3,0-0.4,0.2-0.5,0.6H12L12,7.8z"/>
	<polygon class="st3" points="3.8,9.7 3,9.7 3.4,6.8 2.4,9.7 1.8,9.7 1.8,6.8 1.3,9.7 0.5,9.7 1.1,5.9 2.3,5.9 2.3,8.3 3.1,5.9 
		4.4,5.9 3.8,9.7 	"/>
	<path class="st3" d="M5.7,8.4c-0.1,0-0.1,0-0.2,0c-0.5,0-0.7,0.2-0.7,0.5C4.9,9,5,9.1,5.2,9.1C5.5,9.1,5.7,8.8,5.7,8.4L5.7,8.4z
		 M6.4,9.7H5.7l0-0.3C5.5,9.7,5.2,9.8,4.8,9.8c-0.4,0-0.7-0.3-0.7-0.9c0-0.1,0-0.3,0.1-0.4c0.1-0.5,0.6-0.8,1.3-0.8
		c0.1,0,0.2,0,0.4,0c0-0.1,0-0.1,0-0.2c0-0.2-0.2-0.3-0.5-0.3c-0.2,0-0.5,0-0.7,0.1l-0.1,0l-0.1,0l0.1-0.7C5,6.6,5.3,6.6,5.6,6.6
		c0.7,0,1.1,0.3,1.1,0.9c0,0.2,0,0.3,0,0.6L6.4,9.2l0,0.2l0,0.2L6.4,9.7L6.4,9.7L6.4,9.7z"/>
	<path class="st3" d="M16.4,6.7c0.2,0,0.4,0.1,0.7,0.2L17.2,6C17.2,6,17.1,6,17,6l-0.3-0.1c-0.1,0-0.2,0-0.4,0c-0.4,0-0.6,0-0.9,0.2
		c-0.1,0.1-0.3,0.2-0.5,0.4l-0.1,0L14,7l0-0.3h-0.9l-0.5,3.1h0.8l0.3-1.7c0,0,0.1-0.2,0.2-0.3c0.2-0.2,0.3-0.2,0.5-0.2
		c0,0,0.1,0,0.1,0c0,0.2,0,0.4,0,0.6c0,1,0.6,1.6,1.4,1.6c0.2,0,0.4,0,0.7-0.1l0.1-0.9C16.5,9,16.3,9,16.1,9c-0.5,0-0.8-0.4-0.8-0.9
		C15.3,7.3,15.8,6.7,16.4,6.7L16.4,6.7z"/>
	<path class="st3" d="M23.2,5.9L23,7c-0.2-0.3-0.4-0.4-0.7-0.4c-0.4,0-0.8,0.2-1.1,0.7v0L20.7,7l0.1-0.3h-0.9l-0.5,3.1h0.8l0.3-1.7
		c0,0,0.2-0.2,0.3-0.3c0.1-0.2,0.3-0.2,0.4-0.2C21,7.8,21,8.1,21,8.5c0,0.8,0.4,1.3,1,1.3c0.3,0,0.5-0.1,0.8-0.3l0,0.3h0.8l0.6-3.8
		H23.2L23.2,5.9z M22.2,9c-0.3,0-0.4-0.2-0.4-0.6c0-0.6,0.3-1,0.6-1c0.3,0,0.4,0.2,0.4,0.6C22.9,8.6,22.6,9,22.2,9L22.2,9z"/>
	<path class="st3" d="M18.5,8.4c-0.1,0-0.1,0-0.2,0c-0.5,0-0.7,0.2-0.7,0.5c0,0.2,0.1,0.3,0.3,0.3C18.3,9.1,18.5,8.8,18.5,8.4
		L18.5,8.4z M19.1,9.7h-0.7l0-0.3c-0.2,0.2-0.4,0.4-0.9,0.4c-0.4,0-0.7-0.3-0.7-0.9c0-0.7,0.6-1.2,1.4-1.2c0.1,0,0.2,0,0.4,0
		c0-0.1,0-0.1,0-0.2c0-0.2-0.2-0.3-0.6-0.3c-0.2,0-0.5,0-0.7,0.1l-0.1,0l-0.1,0l0.1-0.7c0.4-0.1,0.6-0.2,0.9-0.2
		c0.7,0,1.1,0.3,1.1,0.9c0,0.2,0,0.3,0,0.6l-0.2,1.1l0,0.2l0,0.2L19.1,9.7L19.1,9.7L19.1,9.7z"/>
	<path class="st3" d="M8,7.3c0.2,0,0.4,0,0.6,0.1l0.1-0.7C8.5,6.6,8.2,6.6,8,6.6c-0.9,0-1.2,0.5-1.2,1.1C6.8,8,7,8.3,7.5,8.5
		c0.3,0.2,0.4,0.2,0.4,0.3c0,0.2-0.2,0.3-0.5,0.3c-0.2,0-0.5,0-0.7-0.1L6.5,9.7l0,0l0.2,0c0.1,0,0.1,0,0.2,0c0.2,0,0.4,0,0.5,0
		c0.9,0,1.3-0.3,1.3-1c0-0.4-0.2-0.7-0.6-0.9C7.7,7.7,7.6,7.7,7.6,7.6C7.6,7.4,7.8,7.3,8,7.3L8,7.3z"/>
	<path class="st2" d="M17.5,5.8l-0.1,0.8c-0.3-0.1-0.5-0.2-0.7-0.2c-0.6,0-1,0.6-1,1.4c0,0.6,0.3,0.9,0.8,0.9c0.2,0,0.4-0.1,0.7-0.2
		l-0.1,0.9c-0.3,0.1-0.5,0.1-0.7,0.1c-0.9,0-1.4-0.6-1.4-1.7c0-1.4,0.7-2.3,1.8-2.3c0.1,0,0.3,0,0.4,0l0.3,0.1
		C17.4,5.8,17.4,5.8,17.5,5.8L17.5,5.8z"/>
	<path class="st2" d="M14.8,6.4C14.8,6.4,14.8,6.4,14.8,6.4c-0.4,0-0.5,0.1-0.7,0.5l0.1-0.5h-0.7l-0.5,3.1h0.8
		c0.3-1.9,0.4-2.2,0.8-2.2c0,0,0,0,0.1,0C14.6,6.9,14.7,6.6,14.8,6.4L14.8,6.4L14.8,6.4z"/>
	<path class="st2" d="M10.2,9.5C9.9,9.5,9.8,9.6,9.6,9.6c-0.4,0-0.6-0.2-0.6-0.7c0-0.1,0-0.2,0-0.3L9,8.3l0-0.2l0.3-2.1h0.8
		l-0.1,0.5h0.4l-0.1,0.8H10L9.8,8.4c0,0.1,0,0.1,0,0.1c0,0.2,0.1,0.2,0.3,0.2c0.1,0,0.2,0,0.2,0L10.2,9.5L10.2,9.5z"/>
	<path class="st2" d="M7.1,7.4c0,0.4,0.2,0.7,0.6,0.9C8,8.4,8,8.4,8,8.6c0,0.2-0.1,0.3-0.5,0.3c-0.2,0-0.5,0-0.7-0.1L6.7,9.5l0,0
		l0.1,0c0.1,0,0.1,0,0.2,0c0.2,0,0.3,0,0.4,0c0.9,0,1.3-0.3,1.3-1c0-0.4-0.2-0.7-0.6-0.9C7.9,7.5,7.9,7.5,7.9,7.3
		c0-0.2,0.1-0.2,0.4-0.2c0.2,0,0.4,0,0.6,0L9,6.4c-0.2,0-0.5-0.1-0.7-0.1C7.4,6.3,7,6.8,7.1,7.4L7.1,7.4z"/>
	<path class="st2" d="M23.6,9.5h-0.8l0-0.3c-0.2,0.2-0.5,0.3-0.8,0.3c-0.6,0-1-0.5-1-1.3c0-1,0.6-1.9,1.3-1.9c0.3,0,0.6,0.1,0.8,0.4
		l0.2-1.1h0.8L23.6,9.5L23.6,9.5z M22.5,8.8c0.4,0,0.6-0.4,0.6-1c0-0.4-0.1-0.6-0.4-0.6c-0.4,0-0.6,0.4-0.6,1
		C22,8.6,22.2,8.8,22.5,8.8L22.5,8.8z"/>
	<path class="st2" d="M12.6,9.4c-0.3,0.1-0.5,0.1-0.8,0.1c-0.9,0-1.4-0.5-1.4-1.4c0-1.1,0.6-1.8,1.4-1.8c0.7,0,1.1,0.4,1.1,1.1
		c0,0.2,0,0.5-0.1,0.8h-1.6c0,0,0,0.1,0,0.1c0,0.4,0.2,0.5,0.7,0.5c0.3,0,0.6-0.1,0.8-0.2L12.6,9.4L12.6,9.4z M12.2,7.6
		c0-0.1,0-0.1,0-0.2c0-0.3-0.1-0.4-0.4-0.4c-0.3,0-0.4,0.2-0.5,0.6H12.2L12.2,7.6z"/>
	<polygon class="st2" points="4,9.5 3.2,9.5 3.6,6.6 2.6,9.5 2,9.5 2,6.6 1.5,9.5 0.7,9.5 1.4,5.7 2.5,5.7 2.6,8 3.3,5.7 4.6,5.7 
		4,9.5 	"/>
	<path class="st2" d="M6,8.1c-0.1,0-0.1,0-0.2,0c-0.5,0-0.7,0.2-0.7,0.5c0,0.2,0.1,0.3,0.3,0.3C5.7,8.9,6,8.6,6,8.1L6,8.1z M6.6,9.5
		H5.9l0-0.3C5.7,9.4,5.4,9.5,5.1,9.5c-0.4,0-0.7-0.3-0.7-0.8c0-0.8,0.5-1.2,1.4-1.2c0.1,0,0.2,0,0.3,0c0-0.1,0-0.1,0-0.2
		c0-0.2-0.1-0.3-0.5-0.3c-0.2,0-0.5,0-0.7,0.1l-0.1,0l-0.1,0l0.1-0.7c0.4-0.1,0.7-0.2,1-0.2c0.7,0,1.1,0.3,1.1,0.9
		c0,0.2,0,0.3-0.1,0.6L6.6,9l0,0.2l0,0.2L6.6,9.5L6.6,9.5L6.6,9.5z"/>
	<path class="st2" d="M18.8,8.1c-0.1,0-0.1,0-0.2,0c-0.5,0-0.7,0.2-0.7,0.5c0,0.2,0.1,0.3,0.3,0.3C18.5,8.9,18.7,8.6,18.8,8.1
		L18.8,8.1z M19.4,9.5h-0.7l0-0.3c-0.2,0.3-0.5,0.4-0.9,0.4c-0.4,0-0.7-0.3-0.7-0.8c0-0.8,0.5-1.2,1.4-1.2c0.1,0,0.2,0,0.3,0
		c0-0.1,0-0.1,0-0.2c0-0.2-0.1-0.3-0.5-0.3c-0.2,0-0.5,0-0.7,0.1l-0.1,0l-0.1,0l0.1-0.7c0.4-0.1,0.7-0.2,1-0.2
		c0.7,0,1.1,0.3,1.1,0.9c0,0.2,0,0.3-0.1,0.6L19.4,9l0,0.2l0,0.2L19.4,9.5L19.4,9.5L19.4,9.5z"/>
	<path class="st2" d="M21.5,6.4C21.5,6.4,21.5,6.4,21.5,6.4c-0.3,0-0.5,0.1-0.7,0.5l0.1-0.5h-0.7l-0.5,3.1h0.8
		c0.3-1.9,0.4-2.2,0.8-2.2c0,0,0,0,0,0C21.3,6.9,21.4,6.6,21.5,6.4L21.5,6.4L21.5,6.4z"/>
</g>
</svg>
